# Blender v2.92.0 OBJ File: 'bottle.blend'
# www.blender.org
mtllib bottle.mtl
o Цилиндр_Цилиндр.001
v 0.000000 -0.130000 -0.050000
v 0.000000 0.130000 -0.050000
v 0.009755 -0.130000 -0.049039
v 0.009755 0.130000 -0.049039
v 0.019134 -0.130000 -0.046194
v 0.019134 0.130000 -0.046194
v 0.027779 -0.130000 -0.041573
v 0.027779 0.130000 -0.041573
v 0.035355 -0.130000 -0.035355
v 0.035355 0.130000 -0.035355
v 0.041573 -0.130000 -0.027779
v 0.041573 0.130000 -0.027779
v 0.046194 -0.130000 -0.019134
v 0.046194 0.130000 -0.019134
v 0.049039 -0.130000 -0.009755
v 0.049039 0.130000 -0.009755
v 0.050000 -0.130000 -0.000000
v 0.050000 0.130000 -0.000000
v 0.049039 -0.130000 0.009755
v 0.049039 0.130000 0.009755
v 0.046194 -0.130000 0.019134
v 0.046194 0.130000 0.019134
v 0.041573 -0.130000 0.027779
v 0.041573 0.130000 0.027779
v 0.035355 -0.130000 0.035355
v 0.035355 0.130000 0.035355
v 0.027779 -0.130000 0.041573
v 0.027779 0.130000 0.041573
v 0.019134 -0.130000 0.046194
v 0.019134 0.130000 0.046194
v 0.009755 -0.130000 0.049039
v 0.009755 0.130000 0.049039
v -0.000000 -0.130000 0.050000
v -0.000000 0.130000 0.050000
v -0.009755 -0.130000 0.049039
v -0.009755 0.130000 0.049039
v -0.019134 -0.130000 0.046194
v -0.019134 0.130000 0.046194
v -0.027779 -0.130000 0.041573
v -0.027779 0.130000 0.041573
v -0.035355 -0.130000 0.035355
v -0.035355 0.130000 0.035355
v -0.041574 -0.130000 0.027778
v -0.041574 0.130000 0.027778
v -0.046194 -0.130000 0.019134
v -0.046194 0.130000 0.019134
v -0.049039 -0.130000 0.009754
v -0.049039 0.130000 0.009754
v -0.050000 -0.130000 -0.000000
v -0.050000 0.130000 -0.000000
v -0.049039 -0.130000 -0.009755
v -0.049039 0.130000 -0.009755
v -0.046194 -0.130000 -0.019134
v -0.046194 0.130000 -0.019134
v -0.041573 -0.130000 -0.027779
v -0.041573 0.130000 -0.027779
v -0.035355 -0.130000 -0.035355
v -0.035355 0.130000 -0.035355
v -0.027778 -0.130000 -0.041574
v -0.027778 0.130000 -0.041574
v -0.019134 -0.130000 -0.046194
v -0.019134 0.130000 -0.046194
v -0.009754 -0.130000 -0.049039
v -0.009754 0.130000 -0.049039
vt 1.000000 0.500000
vt 1.000000 1.000000
vt 0.968750 1.000000
vt 0.968750 0.500000
vt 0.937500 1.000000
vt 0.937500 0.500000
vt 0.906250 1.000000
vt 0.906250 0.500000
vt 0.875000 1.000000
vt 0.875000 0.500000
vt 0.843750 1.000000
vt 0.843750 0.500000
vt 0.812500 1.000000
vt 0.812500 0.500000
vt 0.781250 1.000000
vt 0.781250 0.500000
vt 0.750000 1.000000
vt 0.750000 0.500000
vt 0.718750 1.000000
vt 0.718750 0.500000
vt 0.687500 1.000000
vt 0.687500 0.500000
vt 0.656250 1.000000
vt 0.656250 0.500000
vt 0.625000 1.000000
vt 0.625000 0.500000
vt 0.593750 1.000000
vt 0.593750 0.500000
vt 0.562500 1.000000
vt 0.562500 0.500000
vt 0.531250 1.000000
vt 0.531250 0.500000
vt 0.500000 1.000000
vt 0.500000 0.500000
vt 0.468750 1.000000
vt 0.468750 0.500000
vt 0.437500 1.000000
vt 0.437500 0.500000
vt 0.406250 1.000000
vt 0.406250 0.500000
vt 0.375000 1.000000
vt 0.375000 0.500000
vt 0.343750 1.000000
vt 0.343750 0.500000
vt 0.312500 1.000000
vt 0.312500 0.500000
vt 0.281250 1.000000
vt 0.281250 0.500000
vt 0.250000 1.000000
vt 0.250000 0.500000
vt 0.218750 1.000000
vt 0.218750 0.500000
vt 0.187500 1.000000
vt 0.187500 0.500000
vt 0.156250 1.000000
vt 0.156250 0.500000
vt 0.125000 1.000000
vt 0.125000 0.500000
vt 0.093750 1.000000
vt 0.093750 0.500000
vt 0.062500 1.000000
vt 0.062500 0.500000
vt 0.296822 0.485388
vt 0.250000 0.490000
vt 0.203179 0.485389
vt 0.158156 0.471731
vt 0.116663 0.449553
vt 0.080295 0.419706
vt 0.050447 0.383337
vt 0.028269 0.341844
vt 0.014612 0.296822
vt 0.010000 0.250000
vt 0.014611 0.203179
vt 0.028269 0.158156
vt 0.050447 0.116663
vt 0.080294 0.080294
vt 0.116663 0.050447
vt 0.158156 0.028269
vt 0.203178 0.014612
vt 0.250000 0.010000
vt 0.296822 0.014612
vt 0.341844 0.028269
vt 0.383337 0.050447
vt 0.419706 0.080294
vt 0.449553 0.116663
vt 0.471731 0.158156
vt 0.485388 0.203178
vt 0.490000 0.250000
vt 0.485388 0.296822
vt 0.471731 0.341844
vt 0.449553 0.383337
vt 0.419706 0.419706
vt 0.383337 0.449553
vt 0.341844 0.471731
vt 0.031250 1.000000
vt 0.031250 0.500000
vt 0.000000 1.000000
vt 0.000000 0.500000
vt 0.750000 0.490000
vt 0.796822 0.485388
vt 0.841844 0.471731
vt 0.883337 0.449553
vt 0.919706 0.419706
vt 0.949553 0.383337
vt 0.971731 0.341844
vt 0.985388 0.296822
vt 0.990000 0.250000
vt 0.985388 0.203178
vt 0.971731 0.158156
vt 0.949553 0.116663
vt 0.919706 0.080294
vt 0.883337 0.050447
vt 0.841844 0.028269
vt 0.796822 0.014612
vt 0.750000 0.010000
vt 0.703178 0.014612
vt 0.658156 0.028269
vt 0.616663 0.050447
vt 0.580294 0.080294
vt 0.550447 0.116663
vt 0.528269 0.158156
vt 0.514611 0.203179
vt 0.510000 0.250000
vt 0.514612 0.296822
vt 0.528269 0.341844
vt 0.550447 0.383337
vt 0.580295 0.419706
vt 0.616663 0.449553
vt 0.658156 0.471731
vt 0.703179 0.485389
vn 0.0980 0.0000 -0.9952
vn 0.2903 0.0000 -0.9569
vn 0.4714 0.0000 -0.8819
vn 0.6344 0.0000 -0.7730
vn 0.7730 0.0000 -0.6344
vn 0.8819 0.0000 -0.4714
vn 0.9569 0.0000 -0.2903
vn 0.9952 0.0000 -0.0980
vn 0.9952 0.0000 0.0980
vn 0.9569 0.0000 0.2903
vn 0.8819 0.0000 0.4714
vn 0.7730 0.0000 0.6344
vn 0.6344 0.0000 0.7730
vn 0.4714 0.0000 0.8819
vn 0.2903 0.0000 0.9569
vn 0.0980 0.0000 0.9952
vn -0.0980 0.0000 0.9952
vn -0.2903 0.0000 0.9569
vn -0.4714 0.0000 0.8819
vn -0.6344 0.0000 0.7730
vn -0.7730 0.0000 0.6344
vn -0.8819 0.0000 0.4714
vn -0.9569 0.0000 0.2903
vn -0.9952 0.0000 0.0980
vn -0.9952 0.0000 -0.0980
vn -0.9569 0.0000 -0.2903
vn -0.8819 0.0000 -0.4714
vn -0.7730 0.0000 -0.6344
vn -0.6344 0.0000 -0.7730
vn -0.4714 0.0000 -0.8819
vn 0.0000 1.0000 -0.0000
vn -0.2903 0.0000 -0.9569
vn -0.0980 0.0000 -0.9952
vn 0.0000 -1.0000 0.0000
usemtl Материал
s off
f 1/1/1 2/2/1 4/3/1 3/4/1
f 3/4/2 4/3/2 6/5/2 5/6/2
f 5/6/3 6/5/3 8/7/3 7/8/3
f 7/8/4 8/7/4 10/9/4 9/10/4
f 9/10/5 10/9/5 12/11/5 11/12/5
f 11/12/6 12/11/6 14/13/6 13/14/6
f 13/14/7 14/13/7 16/15/7 15/16/7
f 15/16/8 16/15/8 18/17/8 17/18/8
f 17/18/9 18/17/9 20/19/9 19/20/9
f 19/20/10 20/19/10 22/21/10 21/22/10
f 21/22/11 22/21/11 24/23/11 23/24/11
f 23/24/12 24/23/12 26/25/12 25/26/12
f 25/26/13 26/25/13 28/27/13 27/28/13
f 27/28/14 28/27/14 30/29/14 29/30/14
f 29/30/15 30/29/15 32/31/15 31/32/15
f 31/32/16 32/31/16 34/33/16 33/34/16
f 33/34/17 34/33/17 36/35/17 35/36/17
f 35/36/18 36/35/18 38/37/18 37/38/18
f 37/38/19 38/37/19 40/39/19 39/40/19
f 39/40/20 40/39/20 42/41/20 41/42/20
f 41/42/21 42/41/21 44/43/21 43/44/21
f 43/44/22 44/43/22 46/45/22 45/46/22
f 45/46/23 46/45/23 48/47/23 47/48/23
f 47/48/24 48/47/24 50/49/24 49/50/24
f 49/50/25 50/49/25 52/51/25 51/52/25
f 51/52/26 52/51/26 54/53/26 53/54/26
f 53/54/27 54/53/27 56/55/27 55/56/27
f 55/56/28 56/55/28 58/57/28 57/58/28
f 57/58/29 58/57/29 60/59/29 59/60/29
f 59/60/30 60/59/30 62/61/30 61/62/30
f 4/63/31 2/64/31 64/65/31 62/66/31 60/67/31 58/68/31 56/69/31 54/70/31 52/71/31 50/72/31 48/73/31 46/74/31 44/75/31 42/76/31 40/77/31 38/78/31 36/79/31 34/80/31 32/81/31 30/82/31 28/83/31 26/84/31 24/85/31 22/86/31 20/87/31 18/88/31 16/89/31 14/90/31 12/91/31 10/92/31 8/93/31 6/94/31
f 61/62/32 62/61/32 64/95/32 63/96/32
f 63/96/33 64/95/33 2/97/33 1/98/33
f 1/99/34 3/100/34 5/101/34 7/102/34 9/103/34 11/104/34 13/105/34 15/106/34 17/107/34 19/108/34 21/109/34 23/110/34 25/111/34 27/112/34 29/113/34 31/114/34 33/115/34 35/116/34 37/117/34 39/118/34 41/119/34 43/120/34 45/121/34 47/122/34 49/123/34 51/124/34 53/125/34 55/126/34 57/127/34 59/128/34 61/129/34 63/130/34
o Конус
v 0.000000 0.130000 -0.050000
v 0.009755 0.130000 -0.049039
v 0.019134 0.130000 -0.046194
v 0.027779 0.130000 -0.041573
v 0.035355 0.130000 -0.035355
v 0.041573 0.130000 -0.027779
v 0.046194 0.130000 -0.019134
v 0.049039 0.130000 -0.009755
v 0.050000 0.130000 -0.000000
v 0.049039 0.130000 0.009755
v 0.046194 0.130000 0.019134
v 0.041573 0.130000 0.027779
v 0.035355 0.130000 0.035355
v 0.027779 0.130000 0.041573
v 0.019134 0.130000 0.046194
v 0.009755 0.130000 0.049039
v -0.000000 0.130000 0.050000
v -0.009755 0.130000 0.049039
v -0.019134 0.130000 0.046194
v -0.027779 0.130000 0.041573
v -0.035355 0.130000 0.035355
v -0.041574 0.130000 0.027778
v -0.046194 0.130000 0.019134
v -0.049039 0.130000 0.009754
v -0.050000 0.130000 -0.000000
v -0.049039 0.130000 -0.009755
v -0.046194 0.130000 -0.019134
v -0.041573 0.130000 -0.027779
v -0.035355 0.130000 -0.035355
v -0.027778 0.130000 -0.041574
v -0.019134 0.130000 -0.046194
v -0.009754 0.130000 -0.049039
v 0.000000 0.270000 0.000000
v -0.000000 0.250777 0.000000
vt 0.250000 0.490000
vt 0.250000 0.250000
vt 0.296822 0.485388
vt 0.341844 0.471731
vt 0.383337 0.449553
vt 0.419706 0.419706
vt 0.449553 0.383337
vt 0.471731 0.341844
vt 0.485388 0.296822
vt 0.490000 0.250000
vt 0.485388 0.203178
vt 0.471731 0.158156
vt 0.449553 0.116663
vt 0.419706 0.080294
vt 0.383337 0.050447
vt 0.341844 0.028269
vt 0.296822 0.014612
vt 0.250000 0.010000
vt 0.203178 0.014612
vt 0.158156 0.028269
vt 0.116663 0.050447
vt 0.080294 0.080294
vt 0.050447 0.116663
vt 0.028269 0.158156
vt 0.014611 0.203179
vt 0.010000 0.250000
vt 0.014612 0.296822
vt 0.028269 0.341844
vt 0.050447 0.383337
vt 0.080295 0.419706
vt 0.116663 0.449553
vt 0.158156 0.471731
vt 0.750000 0.490000
vt 0.796822 0.485388
vt 0.841844 0.471731
vt 0.883337 0.449553
vt 0.919706 0.419706
vt 0.949553 0.383337
vt 0.971731 0.341844
vt 0.985388 0.296822
vt 0.990000 0.250000
vt 0.985388 0.203178
vt 0.971731 0.158156
vt 0.949553 0.116663
vt 0.919706 0.080294
vt 0.883337 0.050447
vt 0.841844 0.028269
vt 0.796822 0.014612
vt 0.750000 0.010000
vt 0.703178 0.014612
vt 0.658156 0.028269
vt 0.616663 0.050447
vt 0.580294 0.080294
vt 0.550447 0.116663
vt 0.528269 0.158156
vt 0.514611 0.203179
vt 0.510000 0.250000
vt 0.514612 0.296822
vt 0.528269 0.341844
vt 0.550447 0.383337
vt 0.580295 0.419706
vt 0.616663 0.449553
vt 0.658156 0.471731
vt 0.703179 0.485389
vt 0.203179 0.485389
vn 0.0924 0.3349 -0.9377
vn 0.2735 0.3349 -0.9017
vn 0.4442 0.3349 -0.8310
vn 0.5978 0.3349 -0.7284
vn 0.7284 0.3349 -0.5978
vn 0.8310 0.3349 -0.4442
vn 0.9017 0.3349 -0.2735
vn 0.9377 0.3349 -0.0924
vn 0.9377 0.3349 0.0924
vn 0.9017 0.3349 0.2735
vn 0.8310 0.3349 0.4442
vn 0.7284 0.3349 0.5978
vn 0.5978 0.3349 0.7284
vn 0.4442 0.3349 0.8310
vn 0.2735 0.3349 0.9017
vn 0.0924 0.3349 0.9377
vn -0.0924 0.3349 0.9377
vn -0.2735 0.3349 0.9017
vn -0.4442 0.3349 0.8310
vn -0.5978 0.3349 0.7284
vn -0.7284 0.3349 0.5978
vn -0.8310 0.3349 0.4442
vn -0.9017 0.3349 0.2735
vn -0.9377 0.3349 0.0924
vn -0.9377 0.3349 -0.0924
vn -0.9017 0.3349 -0.2735
vn -0.8310 0.3349 -0.4442
vn -0.7284 0.3349 -0.5978
vn -0.5978 0.3349 -0.7284
vn -0.4442 0.3349 -0.8310
vn 0.0000 -1.0000 0.0000
vn -0.2735 0.3349 -0.9017
vn -0.0924 0.3349 -0.9377
usemtl Материал
s off
f 65/131/35 97/132/35 66/133/35
f 66/133/36 97/132/36 67/134/36
f 67/134/37 97/132/37 68/135/37
f 68/135/38 97/132/38 69/136/38
f 69/136/39 97/132/39 70/137/39
f 70/137/40 97/132/40 71/138/40
f 71/138/41 97/132/41 72/139/41
f 72/139/42 97/132/42 73/140/42
f 73/140/43 97/132/43 74/141/43
f 74/141/44 97/132/44 75/142/44
f 75/142/45 97/132/45 76/143/45
f 76/143/46 97/132/46 77/144/46
f 77/144/47 97/132/47 78/145/47
f 78/145/48 97/132/48 79/146/48
f 79/146/49 97/132/49 80/147/49
f 80/147/50 97/132/50 81/148/50
f 81/148/51 97/132/51 82/149/51
f 82/149/52 97/132/52 83/150/52
f 83/150/53 97/132/53 84/151/53
f 84/151/54 97/132/54 85/152/54
f 85/152/55 97/132/55 86/153/55
f 86/153/56 97/132/56 87/154/56
f 87/154/57 97/132/57 88/155/57
f 88/155/58 97/132/58 89/156/58
f 89/156/59 97/132/59 90/157/59
f 90/157/60 97/132/60 91/158/60
f 91/158/61 97/132/61 92/159/61
f 92/159/62 97/132/62 93/160/62
f 93/160/63 97/132/63 94/161/63
f 94/161/64 97/132/64 95/162/64
f 65/163/65 66/164/65 67/165/65 68/166/65 69/167/65 70/168/65 71/169/65 72/170/65 73/171/65 74/172/65 75/173/65 76/174/65 77/175/65 78/176/65 79/177/65 80/178/65 81/179/65 82/180/65 83/181/65 84/182/65 85/183/65 86/184/65 87/185/65 88/186/65 89/187/65 90/188/65 91/189/65 92/190/65 93/191/65 94/192/65 95/193/65 96/194/65
f 95/162/66 97/132/66 96/195/66
f 96/195/67 97/132/67 65/131/67
l 97 98
o Цилиндр.001_Цилиндр.002
v 0.000000 0.130000 -0.015000
v 0.000000 0.270000 -0.015000
v 0.002926 0.130000 -0.014712
v 0.002926 0.270000 -0.014712
v 0.005740 0.130000 -0.013858
v 0.005740 0.270000 -0.013858
v 0.008334 0.130000 -0.012472
v 0.008334 0.270000 -0.012472
v 0.010607 0.130000 -0.010607
v 0.010607 0.270000 -0.010607
v 0.012472 0.130000 -0.008334
v 0.012472 0.270000 -0.008334
v 0.013858 0.130000 -0.005740
v 0.013858 0.270000 -0.005740
v 0.014712 0.130000 -0.002926
v 0.014712 0.270000 -0.002926
v 0.015000 0.130000 -0.000000
v 0.015000 0.270000 -0.000000
v 0.014712 0.130000 0.002926
v 0.014712 0.270000 0.002926
v 0.013858 0.130000 0.005740
v 0.013858 0.270000 0.005740
v 0.012472 0.130000 0.008334
v 0.012472 0.270000 0.008334
v 0.010607 0.130000 0.010607
v 0.010607 0.270000 0.010607
v 0.008334 0.130000 0.012472
v 0.008334 0.270000 0.012472
v 0.005740 0.130000 0.013858
v 0.005740 0.270000 0.013858
v 0.002926 0.130000 0.014712
v 0.002926 0.270000 0.014712
v -0.000000 0.130000 0.015000
v -0.000000 0.270000 0.015000
v -0.002926 0.130000 0.014712
v -0.002926 0.270000 0.014712
v -0.005740 0.130000 0.013858
v -0.005740 0.270000 0.013858
v -0.008334 0.130000 0.012472
v -0.008334 0.270000 0.012472
v -0.010607 0.130000 0.010607
v -0.010607 0.270000 0.010607
v -0.012472 0.130000 0.008334
v -0.012472 0.270000 0.008334
v -0.013858 0.130000 0.005740
v -0.013858 0.270000 0.005740
v -0.014712 0.130000 0.002926
v -0.014712 0.270000 0.002926
v -0.015000 0.130000 -0.000000
v -0.015000 0.270000 -0.000000
v -0.014712 0.130000 -0.002926
v -0.014712 0.270000 -0.002926
v -0.013858 0.130000 -0.005740
v -0.013858 0.270000 -0.005740
v -0.012472 0.130000 -0.008334
v -0.012472 0.270000 -0.008334
v -0.010607 0.130000 -0.010607
v -0.010607 0.270000 -0.010607
v -0.008334 0.130000 -0.012472
v -0.008334 0.270000 -0.012472
v -0.005740 0.130000 -0.013858
v -0.005740 0.270000 -0.013858
v -0.002926 0.130000 -0.014712
v -0.002926 0.270000 -0.014712
v -0.005740 0.270000 -0.013858
vt 1.000000 0.500000
vt 1.000000 1.000000
vt 0.968750 1.000000
vt 0.968750 0.500000
vt 0.937500 1.000000
vt 0.937500 0.500000
vt 0.906250 1.000000
vt 0.906250 0.500000
vt 0.875000 1.000000
vt 0.875000 0.500000
vt 0.843750 1.000000
vt 0.843750 0.500000
vt 0.812500 1.000000
vt 0.812500 0.500000
vt 0.781250 1.000000
vt 0.781250 0.500000
vt 0.750000 1.000000
vt 0.750000 0.500000
vt 0.718750 1.000000
vt 0.718750 0.500000
vt 0.687500 1.000000
vt 0.687500 0.500000
vt 0.656250 1.000000
vt 0.656250 0.500000
vt 0.625000 1.000000
vt 0.625000 0.500000
vt 0.593750 1.000000
vt 0.593750 0.500000
vt 0.562500 1.000000
vt 0.562500 0.500000
vt 0.531250 1.000000
vt 0.531250 0.500000
vt 0.500000 1.000000
vt 0.500000 0.500000
vt 0.468750 1.000000
vt 0.468750 0.500000
vt 0.437500 1.000000
vt 0.437500 0.500000
vt 0.406250 1.000000
vt 0.406250 0.500000
vt 0.375000 1.000000
vt 0.375000 0.500000
vt 0.343750 1.000000
vt 0.343750 0.500000
vt 0.312500 1.000000
vt 0.312500 0.500000
vt 0.281250 1.000000
vt 0.281250 0.500000
vt 0.250000 1.000000
vt 0.250000 0.500000
vt 0.218750 1.000000
vt 0.218750 0.500000
vt 0.187500 1.000000
vt 0.187500 0.500000
vt 0.156250 1.000000
vt 0.156250 0.500000
vt 0.125000 1.000000
vt 0.125000 0.500000
vt 0.093750 1.000000
vt 0.093750 0.500000
vt 0.062500 1.000000
vt 0.062500 0.500000
vt 0.296822 0.485388
vt 0.250000 0.490000
vt 0.203179 0.485389
vt 0.158156 0.471731
vt 0.116663 0.449553
vt 0.080295 0.419706
vt 0.050447 0.383337
vt 0.028269 0.341844
vt 0.014612 0.296822
vt 0.010000 0.250000
vt 0.014611 0.203179
vt 0.028269 0.158156
vt 0.050447 0.116663
vt 0.080294 0.080294
vt 0.116663 0.050447
vt 0.158156 0.028269
vt 0.203178 0.014612
vt 0.250000 0.010000
vt 0.296822 0.014612
vt 0.341844 0.028269
vt 0.383337 0.050447
vt 0.419706 0.080294
vt 0.449553 0.116663
vt 0.471731 0.158156
vt 0.485388 0.203178
vt 0.490000 0.250000
vt 0.485388 0.296822
vt 0.471731 0.341844
vt 0.449553 0.383337
vt 0.419706 0.419706
vt 0.383337 0.449553
vt 0.341844 0.471731
vt 0.031250 1.000000
vt 0.031250 0.500000
vt 0.000000 1.000000
vt 0.000000 0.500000
vt 0.750000 0.490000
vt 0.796822 0.485388
vt 0.841844 0.471731
vt 0.883337 0.449553
vt 0.919706 0.419706
vt 0.949553 0.383337
vt 0.971731 0.341844
vt 0.985388 0.296822
vt 0.990000 0.250000
vt 0.985388 0.203178
vt 0.971731 0.158156
vt 0.949553 0.116663
vt 0.919706 0.080294
vt 0.883337 0.050447
vt 0.841844 0.028269
vt 0.796822 0.014612
vt 0.750000 0.010000
vt 0.703178 0.014612
vt 0.658156 0.028269
vt 0.616663 0.050447
vt 0.580294 0.080294
vt 0.550447 0.116663
vt 0.528269 0.158156
vt 0.514611 0.203179
vt 0.510000 0.250000
vt 0.514612 0.296822
vt 0.528269 0.341844
vt 0.550447 0.383337
vt 0.580295 0.419706
vt 0.616663 0.449553
vt 0.658156 0.471731
vt 0.703179 0.485389
vn 0.0980 0.0000 -0.9952
vn 0.2903 0.0000 -0.9569
vn 0.4714 0.0000 -0.8819
vn 0.6344 0.0000 -0.7730
vn 0.7730 0.0000 -0.6344
vn 0.8819 0.0000 -0.4714
vn 0.9569 0.0000 -0.2903
vn 0.9952 0.0000 -0.0980
vn 0.9952 0.0000 0.0980
vn 0.9569 0.0000 0.2903
vn 0.8819 0.0000 0.4714
vn 0.7730 0.0000 0.6344
vn 0.6344 0.0000 0.7730
vn 0.4714 0.0000 0.8819
vn 0.2903 0.0000 0.9569
vn 0.0980 0.0000 0.9952
vn -0.0980 0.0000 0.9952
vn -0.2903 0.0000 0.9569
vn -0.4714 0.0000 0.8819
vn -0.6344 0.0000 0.7730
vn -0.7730 0.0000 0.6344
vn -0.8819 0.0000 0.4714
vn -0.9569 0.0000 0.2903
vn -0.9952 0.0000 0.0980
vn -0.9952 0.0000 -0.0980
vn -0.9569 0.0000 -0.2903
vn -0.8819 0.0000 -0.4714
vn -0.7730 0.0000 -0.6344
vn -0.6344 0.0000 -0.7730
vn -0.4714 0.0000 -0.8819
vn 0.0000 1.0000 -0.0000
vn -0.2903 0.0000 -0.9569
vn -0.0980 0.0000 -0.9952
vn 0.0000 -1.0000 -0.0000
usemtl Материал
s off
f 99/196/68 100/197/68 102/198/68 101/199/68
f 101/199/69 102/198/69 104/200/69 103/201/69
f 103/201/70 104/200/70 106/202/70 105/203/70
f 105/203/71 106/202/71 108/204/71 107/205/71
f 107/205/72 108/204/72 110/206/72 109/207/72
f 109/207/73 110/206/73 112/208/73 111/209/73
f 111/209/74 112/208/74 114/210/74 113/211/74
f 113/211/75 114/210/75 116/212/75 115/213/75
f 115/213/76 116/212/76 118/214/76 117/215/76
f 117/215/77 118/214/77 120/216/77 119/217/77
f 119/217/78 120/216/78 122/218/78 121/219/78
f 121/219/79 122/218/79 124/220/79 123/221/79
f 123/221/80 124/220/80 126/222/80 125/223/80
f 125/223/81 126/222/81 128/224/81 127/225/81
f 127/225/82 128/224/82 130/226/82 129/227/82
f 129/227/83 130/226/83 132/228/83 131/229/83
f 131/229/84 132/228/84 134/230/84 133/231/84
f 133/231/85 134/230/85 136/232/85 135/233/85
f 135/233/86 136/232/86 138/234/86 137/235/86
f 137/235/87 138/234/87 140/236/87 139/237/87
f 139/237/88 140/236/88 142/238/88 141/239/88
f 141/239/89 142/238/89 144/240/89 143/241/89
f 143/241/90 144/240/90 146/242/90 145/243/90
f 145/243/91 146/242/91 148/244/91 147/245/91
f 147/245/92 148/244/92 150/246/92 149/247/92
f 149/247/93 150/246/93 152/248/93 151/249/93
f 151/249/94 152/248/94 154/250/94 153/251/94
f 153/251/95 154/250/95 156/252/95 155/253/95
f 155/253/96 156/252/96 158/254/96 157/255/96
f 157/255/97 158/254/97 160/256/97 159/257/97
f 102/258/98 100/259/98 162/260/98 160/261/98 158/262/98 156/263/98 154/264/98 152/265/98 150/266/98 148/267/98 146/268/98 144/269/98 142/270/98 140/271/98 138/272/98 136/273/98 134/274/98 132/275/98 130/276/98 128/277/98 126/278/98 124/279/98 122/280/98 120/281/98 118/282/98 116/283/98 114/284/98 112/285/98 110/286/98 108/287/98 106/288/98 104/289/98
f 159/257/99 160/256/99 162/290/99 161/291/99
f 161/291/100 162/290/100 100/292/100 99/293/100
f 99/294/101 101/295/101 103/296/101 105/297/101 107/298/101 109/299/101 111/300/101 113/301/101 115/302/101 117/303/101 119/304/101 121/305/101 123/306/101 125/307/101 127/308/101 129/309/101 131/310/101 133/311/101 135/312/101 137/313/101 139/314/101 141/315/101 143/316/101 145/317/101 147/318/101 149/319/101 151/320/101 153/321/101 155/322/101 157/323/101 159/324/101 161/325/101
l 160 163
